<?xml version="1.0" encoding="UTF-8"?>
<svg viewBox="0 0 420 420" xmlns="http://www.w3.org/2000/svg">
  <defs>
    <linearGradient id="gradient" x2="420" y2="420" gradientUnits="userSpaceOnUse">
      <stop stop-color="#eee9" offset="0" />
      <stop stop-color="#ddd6" offset=".25" />
      <stop stop-color="#ddd1" offset=".75" />
      <stop stop-color="#eee1" offset="1" />
    </linearGradient>
  </defs>
  <style>svg:root{width: 50%; margin:auto; /* background: black; */}</style>
  <title>Markout Icon</title>
  <g id="markout-icon" stroke="#fff1">
    <g id="markout-symbol" stroke="#9993">
      <g id="markout-html-symbol" fill="#f90">
        <path d="m137.87 258.9-76.74-46.13v-4.37l76.74-46.13 2.18 3.5-75 44.82 75 44.81z" />
        <path d="m288.14 258.78l-2.19-3.5 75-44.82-75-44.82 2.19-3.5 76.73 46.13v4.38z" />
      </g>
      <path id="markout-markdown-symbol" fill="#6c0"
            d="M170.09,319.11l10.5-59.24H158.2l1.4-8.39H182l13.53-76H173.12l1.4-8.39h22.39l10.49-59.23h9.33l-10.49,59.23h29.85l10.49-59.23h9.33l-10.49,59.23H267.8l-1.4,8.39H244l-13.53,76h22.39l-1.4,8.39H229.09L218.6,319.11h-9.33l10.49-59.24H189.91l-10.49,59.24Zm21.22-67.63h29.85l13.53-76H204.84Z" />
    </g>
    <rect fill-opacity="0.5" fill="url(#gradient)" width="420" height="420" rx="84" />
  </g>
</svg>
